# xmcd
#
# Track frame offsets:
#	180
#	15075
#	37543
#	55430
#	81980
#	102214
#	119296
#	133252
#	158375
#	180622
#	194103
#	208917
#	235824
#	252935
#	277826
#
# Disc length: 4118 seconds
#
# Revision: 1
# Processed by: cddbd v1.5.2PL0 Copyright (c) Steve Scherf et al.
# Submitted via: audiograbber 1.83.01
#
DISCID=c310140f
DTITLE=Richard Boals - Live @ The Dolphin
DYEAR=1900
DGENRE=Blues
TTITLE0=Better Get Yourself Covered
TTITLE1=Highway 61
TTITLE2=Red Beans and Rice
TTITLE3=You Play A Wicked Game
TTITLE4=Plaything
TTITLE5=Dangerous
TTITLE6=Ain't No Way
TTITLE7=Long Way From Home
TTITLE8=Still Got The Blues For You
TTITLE9=Mardis Gras Queen
TTITLE10=What I Need The Most
TTITLE11=Evil
TTITLE12=Everywhere I Go
TTITLE13=Blues Got A Hold On Me
TTITLE14=White Man's Burden
EXTD=
EXTT0=
EXTT1=
EXTT2=
EXTT3=
EXTT4=
EXTT5=
EXTT6=
EXTT7=
EXTT8=
EXTT9=
EXTT10=
EXTT11=
EXTT12=
EXTT13=
EXTT14=
PLAYORDER=
